<svg width="34" height="34" viewBox="0 0 34 34" fill="none" xmlns="http://www.w3.org/2000/svg">
    <path
        d="M20.852 12.4532L14.7745 18.5448L12.437 16.2073C12.31 16.059 12.1538 15.9386 11.978 15.8535C11.8022 15.7685 11.6108 15.7207 11.4157 15.7132C11.2206 15.7057 11.026 15.7385 10.8442 15.8097C10.6625 15.881 10.4973 15.989 10.3593 16.1271C10.2212 16.2651 10.1132 16.4302 10.042 16.612C9.97075 16.7938 9.93787 16.9884 9.94541 17.1835C9.95294 17.3786 10.0007 17.57 10.0858 17.7458C10.1708 17.9215 10.2912 18.0778 10.4395 18.2048L13.7687 21.5482C13.9011 21.6794 14.0581 21.7833 14.2307 21.8538C14.4033 21.9243 14.5881 21.9601 14.7745 21.959C15.1462 21.9574 15.5023 21.8099 15.7662 21.5482L22.8495 14.4648C22.9823 14.3331 23.0877 14.1764 23.1596 14.0038C23.2316 13.8312 23.2686 13.646 23.2686 13.459C23.2686 13.272 23.2316 13.0868 23.1596 12.9142C23.0877 12.7415 22.9823 12.5848 22.8495 12.4532C22.5841 12.1893 22.2251 12.0412 21.8508 12.0412C21.4765 12.0412 21.1175 12.1893 20.852 12.4532ZM16.9987 2.83398C14.1968 2.83398 11.4578 3.66484 9.12813 5.2215C6.79843 6.77815 4.98265 8.99068 3.91041 11.5793C2.83817 14.1679 2.55762 17.0164 3.10425 19.7644C3.65087 22.5125 5.00011 25.0368 6.98136 27.018C8.9626 28.9992 11.4869 30.3485 14.2349 30.8951C16.983 31.4417 19.8314 31.1612 22.4201 30.0889C25.0087 29.0167 27.2212 27.2009 28.7779 24.8712C30.3345 22.5415 31.1654 19.8026 31.1654 17.0007C31.1654 15.1403 30.7989 13.2981 30.087 11.5793C29.3751 9.86052 28.3315 8.2988 27.0161 6.9833C25.7006 5.66781 24.1388 4.6243 22.4201 3.91236C20.7013 3.20042 18.8591 2.83398 16.9987 2.83398ZM16.9987 28.334C14.7572 28.334 12.566 27.6693 10.7022 26.424C8.83848 25.1786 7.38586 23.4086 6.52807 21.3377C5.67028 19.2668 5.44584 16.9881 5.88314 14.7896C6.32044 12.5912 7.39983 10.5718 8.98483 8.98677C10.5698 7.40178 12.5892 6.32238 14.7877 5.88508C16.9861 5.44779 19.2649 5.67222 21.3358 6.53002C23.4067 7.38781 25.1767 8.84043 26.422 10.7042C27.6673 12.5679 28.332 14.7591 28.332 17.0007C28.332 20.0064 27.138 22.8891 25.0126 25.0145C22.8872 27.1399 20.0045 28.334 16.9987 28.334Z"
        fill="white" />
</svg>
    