<svg width="34" height="34" viewBox="0 0 34 34" fill="none" xmlns="http://www.w3.org/2000/svg">
    <path
        d="M10.6263 14.1673H12.043C12.4187 14.1673 12.779 14.0181 13.0447 13.7524C13.3104 13.4867 13.4596 13.1264 13.4596 12.7507C13.4596 12.3749 13.3104 12.0146 13.0447 11.7489C12.779 11.4832 12.4187 11.334 12.043 11.334H10.6263C10.2506 11.334 9.89024 11.4832 9.62457 11.7489C9.35889 12.0146 9.20964 12.3749 9.20964 12.7507C9.20964 13.1264 9.35889 13.4867 9.62457 13.7524C9.89024 14.0181 10.2506 14.1673 10.6263 14.1673ZM16.293 22.6673H10.6263C10.2506 22.6673 9.89024 22.8166 9.62457 23.0822C9.35889 23.3479 9.20964 23.7083 9.20964 24.084C9.20964 24.4597 9.35889 24.82 9.62457 25.0857C9.89024 25.3514 10.2506 25.5007 10.6263 25.5007H16.293C16.6687 25.5007 17.029 25.3514 17.2947 25.0857C17.5604 24.82 17.7096 24.4597 17.7096 24.084C17.7096 23.7083 17.5604 23.3479 17.2947 23.0822C17.029 22.8166 16.6687 22.6673 16.293 22.6673ZM16.293 17.0007H10.6263C10.2506 17.0007 9.89024 17.1499 9.62457 17.4156C9.35889 17.6813 9.20964 18.0416 9.20964 18.4173C9.20964 18.793 9.35889 19.1534 9.62457 19.4191C9.89024 19.6847 10.2506 19.834 10.6263 19.834H16.293C16.6687 19.834 17.029 19.6847 17.2947 19.4191C17.5604 19.1534 17.7096 18.793 17.7096 18.4173C17.7096 18.0416 17.5604 17.6813 17.2947 17.4156C17.029 17.1499 16.6687 17.0007 16.293 17.0007ZM26.0963 13.289C26.2048 13.031 26.2344 12.7466 26.1815 12.4718C26.1285 12.197 25.9954 11.944 25.7988 11.7448L17.2988 3.24482C17.1817 3.13462 17.0478 3.04377 16.9021 2.97565C16.8598 2.96964 16.8169 2.96964 16.7746 2.97565L16.378 2.83398H7.79297C6.6658 2.83398 5.58479 3.28175 4.78777 4.07878C3.99074 4.87581 3.54297 5.95681 3.54297 7.08398V26.9173C3.54297 28.0445 3.99074 29.1255 4.78777 29.9225C5.58479 30.7196 6.6658 31.1673 7.79297 31.1673H16.293C16.6687 31.1673 17.029 31.0181 17.2947 30.7524C17.5604 30.4867 17.7096 30.1264 17.7096 29.7507C17.7096 29.3749 17.5604 29.0146 17.2947 28.7489C17.029 28.4832 16.6687 28.334 16.293 28.334H7.79297C7.41725 28.334 7.05691 28.1847 6.79123 27.9191C6.52556 27.6534 6.3763 27.293 6.3763 26.9173V7.08398C6.3763 6.70826 6.52556 6.34793 6.79123 6.08225C7.05691 5.81657 7.41725 5.66732 7.79297 5.66732H14.8763V9.91732C14.8763 11.0445 15.3241 12.1255 16.1211 12.9225C16.9181 13.7196 17.9991 14.1673 19.1263 14.1673H24.793C25.0727 14.1659 25.3457 14.0818 25.5776 13.9255C25.8095 13.7692 25.99 13.5477 26.0963 13.289ZM19.1263 11.334C18.7506 11.334 18.3902 11.1847 18.1246 10.9191C17.8589 10.6534 17.7096 10.293 17.7096 9.91732V7.66482L21.3788 11.334H19.1263ZM29.043 17.0007H21.9596C21.5839 17.0007 21.2236 17.1499 20.9579 17.4156C20.6922 17.6813 20.543 18.0416 20.543 18.4173V29.7507C20.5437 30.0069 20.6138 30.2582 20.7461 30.4778C20.8783 30.6973 21.0676 30.8769 21.2938 30.9973C21.5153 31.1111 21.7629 31.1644 22.0116 31.152C22.2604 31.1395 22.5014 31.0618 22.7105 30.9265L25.5013 29.0848L28.3346 30.9265C28.5463 31.0489 28.786 31.1144 29.0305 31.1167C29.2749 31.1191 29.5158 31.0581 29.7298 30.9397C29.9437 30.8213 30.1233 30.6496 30.2512 30.4412C30.3791 30.2329 30.4509 29.995 30.4596 29.7507V18.4173C30.4596 18.0416 30.3104 17.6813 30.0447 17.4156C29.779 17.1499 29.4187 17.0007 29.043 17.0007ZM27.6263 27.0873L26.2946 26.1948C26.0604 26.0365 25.7841 25.9518 25.5013 25.9518C25.2185 25.9518 24.9422 26.0365 24.708 26.1948L23.3763 27.0873V19.834H27.6263V27.0873Z"
        fill="white" />
</svg>
    