<svg width="34" height="34" viewBox="0 0 34 34" fill="none" xmlns="http://www.w3.org/2000/svg">
    <path
        d="M19.832 12.7507H14.1654C13.7896 12.7507 13.4293 12.8999 13.1636 13.1656C12.898 13.4313 12.7487 13.7916 12.7487 14.1673V19.834C12.7487 20.2097 12.898 20.57 13.1636 20.8357C13.4293 21.1014 13.7896 21.2507 14.1654 21.2507H19.832C20.2078 21.2507 20.5681 21.1014 20.8338 20.8357C21.0994 20.57 21.2487 20.2097 21.2487 19.834V14.1673C21.2487 13.7916 21.0994 13.4313 20.8338 13.1656C20.5681 12.8999 20.2078 12.7507 19.832 12.7507ZM18.4154 18.4173H15.582V15.584H18.4154V18.4173ZM29.7487 18.4173C30.1244 18.4173 30.4848 18.2681 30.7504 18.0024C31.0161 17.7367 31.1654 17.3764 31.1654 17.0007C31.1654 16.6249 31.0161 16.2646 30.7504 15.9989C30.4848 15.7332 30.1244 15.584 29.7487 15.584H26.9154V12.7507H29.7487C30.1244 12.7507 30.4848 12.6014 30.7504 12.3357C31.0161 12.07 31.1654 11.7097 31.1654 11.334C31.1654 10.9583 31.0161 10.5979 30.7504 10.3322C30.4848 10.0666 30.1244 9.91732 29.7487 9.91732H26.6604C26.4488 9.32317 26.1077 8.78355 25.6618 8.33759C25.2158 7.89163 24.6762 7.55052 24.082 7.33898V4.25065C24.082 3.87493 23.9328 3.51459 23.6671 3.24892C23.4014 2.98324 23.0411 2.83398 22.6654 2.83398C22.2896 2.83398 21.9293 2.98324 21.6636 3.24892C21.398 3.51459 21.2487 3.87493 21.2487 4.25065V7.08398H18.4154V4.25065C18.4154 3.87493 18.2661 3.51459 18.0004 3.24892C17.7348 2.98324 17.3744 2.83398 16.9987 2.83398C16.623 2.83398 16.2626 2.98324 15.997 3.24892C15.7313 3.51459 15.582 3.87493 15.582 4.25065V7.08398H12.7487V4.25065C12.7487 3.87493 12.5994 3.51459 12.3338 3.24892C12.0681 2.98324 11.7078 2.83398 11.332 2.83398C10.9563 2.83398 10.596 2.98324 10.3303 3.24892C10.0646 3.51459 9.91536 3.87493 9.91536 4.25065V7.33898C9.32122 7.55052 8.7816 7.89163 8.33564 8.33759C7.88968 8.78355 7.54857 9.32317 7.33703 9.91732H4.2487C3.87297 9.91732 3.51264 10.0666 3.24696 10.3322C2.98129 10.5979 2.83203 10.9583 2.83203 11.334C2.83203 11.7097 2.98129 12.07 3.24696 12.3357C3.51264 12.6014 3.87297 12.7507 4.2487 12.7507H7.08203V15.584H4.2487C3.87297 15.584 3.51264 15.7332 3.24696 15.9989C2.98129 16.2646 2.83203 16.6249 2.83203 17.0007C2.83203 17.3764 2.98129 17.7367 3.24696 18.0024C3.51264 18.2681 3.87297 18.4173 4.2487 18.4173H7.08203V21.2507H4.2487C3.87297 21.2507 3.51264 21.3999 3.24696 21.6656C2.98129 21.9313 2.83203 22.2916 2.83203 22.6673C2.83203 23.043 2.98129 23.4034 3.24696 23.6691C3.51264 23.9347 3.87297 24.084 4.2487 24.084H7.33703C7.54857 24.6781 7.88968 25.2178 8.33564 25.6637C8.7816 26.1097 9.32122 26.4508 9.91536 26.6623V29.7507C9.91536 30.1264 10.0646 30.4867 10.3303 30.7524C10.596 31.0181 10.9563 31.1673 11.332 31.1673C11.7078 31.1673 12.0681 31.0181 12.3338 30.7524C12.5994 30.4867 12.7487 30.1264 12.7487 29.7507V26.9173H15.582V29.7507C15.582 30.1264 15.7313 30.4867 15.997 30.7524C16.2626 31.0181 16.623 31.1673 16.9987 31.1673C17.3744 31.1673 17.7348 31.0181 18.0004 30.7524C18.2661 30.4867 18.4154 30.1264 18.4154 29.7507V26.9173H21.2487V29.7507C21.2487 30.1264 21.398 30.4867 21.6636 30.7524C21.9293 31.0181 22.2896 31.1673 22.6654 31.1673C23.0411 31.1673 23.4014 31.0181 23.6671 30.7524C23.9328 30.4867 24.082 30.1264 24.082 29.7507V26.6623C24.6762 26.4508 25.2158 26.1097 25.6618 25.6637C26.1077 25.2178 26.4488 24.6781 26.6604 24.084H29.7487C30.1244 24.084 30.4848 23.9347 30.7504 23.6691C31.0161 23.4034 31.1654 23.043 31.1654 22.6673C31.1654 22.2916 31.0161 21.9313 30.7504 21.6656C30.4848 21.3999 30.1244 21.2507 29.7487 21.2507H26.9154V18.4173H29.7487ZM24.082 22.6673C24.082 23.043 23.9328 23.4034 23.6671 23.6691C23.4014 23.9347 23.0411 24.084 22.6654 24.084H11.332C10.9563 24.084 10.596 23.9347 10.3303 23.6691C10.0646 23.4034 9.91536 23.043 9.91536 22.6673V11.334C9.91536 10.9583 10.0646 10.5979 10.3303 10.3322C10.596 10.0666 10.9563 9.91732 11.332 9.91732H22.6654C23.0411 9.91732 23.4014 10.0666 23.6671 10.3322C23.9328 10.5979 24.082 10.9583 24.082 11.334V22.6673Z"
        fill="white" />
</svg>
    