<svg width="34" height="34" viewBox="0 0 34 34" fill="none" xmlns="http://www.w3.org/2000/svg">
    <path
        d="M14.7041 18.5306C14.5338 18.458 14.3509 18.4195 14.1658 18.4173H8.4991C8.12338 18.4173 7.76304 18.5665 7.49737 18.8322C7.23169 19.0979 7.08243 19.4582 7.08243 19.8339C7.08243 20.2096 7.23169 20.57 7.49737 20.8357C7.76304 21.1013 8.12338 21.2506 8.4991 21.2506H10.7516L3.24327 28.7448C3.11048 28.8765 3.00509 29.0331 2.93317 29.2058C2.86125 29.3784 2.82422 29.5636 2.82422 29.7506C2.82422 29.9376 2.86125 30.1228 2.93317 30.2954C3.00509 30.468 3.11048 30.6247 3.24327 30.7564C3.37496 30.8892 3.53165 30.9946 3.70428 31.0665C3.87692 31.1384 4.06208 31.1755 4.2491 31.1755C4.43612 31.1755 4.62128 31.1384 4.79392 31.0665C4.96655 30.9946 5.12324 30.8892 5.25493 30.7564L12.7491 23.2481V25.5006C12.7491 25.8763 12.8984 26.2366 13.164 26.5023C13.4297 26.768 13.79 26.9173 14.1658 26.9173C14.5415 26.9173 14.9018 26.768 15.1675 26.5023C15.4332 26.2366 15.5824 25.8763 15.5824 25.5006V19.8339C15.5802 19.6488 15.5417 19.4659 15.4691 19.2956C15.3253 18.9494 15.0503 18.6743 14.7041 18.5306ZM14.1658 7.08392C13.79 7.08392 13.4297 7.23318 13.164 7.49885C12.8984 7.76453 12.7491 8.12486 12.7491 8.50059V10.7531L5.25493 3.24475C5.12285 3.11267 4.96603 3.00789 4.79345 2.9364C4.62087 2.86492 4.4359 2.82813 4.2491 2.82812C4.0623 2.82812 3.87733 2.86492 3.70475 2.9364C3.53217 3.00789 3.37535 3.11267 3.24327 3.24475C2.9765 3.51152 2.82664 3.87333 2.82664 4.25059C2.82664 4.62785 2.9765 4.98966 3.24327 5.25642L10.7516 12.7506H8.4991C8.12338 12.7506 7.76304 12.8998 7.49737 13.1655C7.23169 13.4312 7.08243 13.7915 7.08243 14.1673C7.08243 14.543 7.23169 14.9033 7.49737 15.169C7.76304 15.4347 8.12338 15.5839 8.4991 15.5839H14.1658C14.3509 15.5817 14.5338 15.5432 14.7041 15.4706C15.0503 15.3268 15.3253 15.0517 15.4691 14.7056C15.5417 14.5353 15.5802 14.3524 15.5824 14.1673V8.50059C15.5824 8.12486 15.4332 7.76453 15.1675 7.49885C14.9018 7.23318 14.5415 7.08392 14.1658 7.08392ZM19.2941 15.4706C19.4644 15.5432 19.6473 15.5817 19.8324 15.5839H25.4991C25.8748 15.5839 26.2352 15.4347 26.5008 15.169C26.7665 14.9033 26.9158 14.543 26.9158 14.1673C26.9158 13.7915 26.7665 13.4312 26.5008 13.1655C26.2352 12.8998 25.8748 12.7506 25.4991 12.7506H23.2466L30.7549 5.25642C31.0217 4.98966 31.1716 4.62785 31.1716 4.25059C31.1716 3.87333 31.0217 3.51152 30.7549 3.24475C30.4882 2.97799 30.1264 2.82812 29.7491 2.82812C29.3718 2.82813 29.01 2.97799 28.7433 3.24475L21.2491 10.7531V8.50059C21.2491 8.12486 21.0998 7.76453 20.8342 7.49885C20.5685 7.23318 20.2082 7.08392 19.8324 7.08392C19.4567 7.08392 19.0964 7.23318 18.8307 7.49885C18.565 7.76453 18.4158 8.12486 18.4158 8.50059V14.1673C18.418 14.3524 18.4565 14.5353 18.5291 14.7056C18.6729 15.0517 18.9479 15.3268 19.2941 15.4706ZM23.2466 21.2506H25.4991C25.8748 21.2506 26.2352 21.1013 26.5008 20.8357C26.7665 20.57 26.9158 20.2096 26.9158 19.8339C26.9158 19.4582 26.7665 19.0979 26.5008 18.8322C26.2352 18.5665 25.8748 18.4173 25.4991 18.4173H19.8324C19.6473 18.4195 19.4644 18.458 19.2941 18.5306C18.9479 18.6743 18.6729 18.9494 18.5291 19.2956C18.4565 19.4659 18.418 19.6488 18.4158 19.8339V25.5006C18.4158 25.8763 18.565 26.2366 18.8307 26.5023C19.0964 26.768 19.4567 26.9173 19.8324 26.9173C20.2082 26.9173 20.5685 26.768 20.8342 26.5023C21.0998 26.2366 21.2491 25.8763 21.2491 25.5006V23.2481L28.7433 30.7564C28.875 30.8892 29.0316 30.9946 29.2043 31.0665C29.3769 31.1384 29.5621 31.1755 29.7491 31.1755C29.9361 31.1755 30.1213 31.1384 30.2939 31.0665C30.4666 30.9946 30.6232 30.8892 30.7549 30.7564C30.8877 30.6247 30.9931 30.468 31.065 30.2954C31.137 30.1228 31.174 29.9376 31.174 29.7506C31.174 29.5636 31.137 29.3784 31.065 29.2058C30.9931 29.0331 30.8877 28.8765 30.7549 28.7448L23.2466 21.2506Z"
        fill="white" />
</svg>
    