<svg width="34" height="34" viewBox="0 0 34 34" fill="none" xmlns="http://www.w3.org/2000/svg">
    <path
        d="M31.1672 15.6548C31.1672 15.499 31.1672 15.3432 31.1672 15.1873L31.0397 14.3373L30.9122 13.7848C30.9122 13.544 30.7989 13.3032 30.7281 13.0623C30.6572 12.8215 30.6147 12.6798 30.5439 12.4957C30.5043 12.3843 30.4712 12.2708 30.4447 12.1557C30.4447 12.1557 30.4447 12.1557 30.4447 12.0848C29.7274 10.1766 28.6106 8.44369 27.169 7.00218C25.7275 5.56067 23.9946 4.44384 22.0864 3.72648C22.0864 3.72648 22.0864 3.72648 22.0156 3.72648L21.6897 3.62732L21.0947 3.44315C20.8822 3.44315 20.6556 3.32982 20.4431 3.27315L19.7914 3.13148L19.1397 3.03232C18.9131 3.03232 18.7006 3.03232 18.4597 2.94732C18.2189 2.86232 17.9639 2.94732 17.7231 2.94732L17.0006 2.83398H16.4481C16.2072 2.83398 15.9522 2.83398 15.7114 2.83398C15.4706 2.83398 15.2581 2.83398 15.0314 2.91898L14.3797 3.01815L13.7281 3.15982C13.5156 3.15982 13.2889 3.25898 13.0764 3.32982L12.4814 3.51398L12.1556 3.61315C12.1556 3.61315 12.1556 3.61315 12.0847 3.61315C10.1765 4.3305 8.44362 5.44734 7.00211 6.88885C5.5606 8.33036 4.44376 10.0633 3.72641 11.9715C3.72641 11.9715 3.72641 11.9715 3.72641 12.0423C3.69991 12.1575 3.6668 12.271 3.62724 12.3823C3.62724 12.5665 3.49974 12.7507 3.44307 12.949C3.38641 13.1473 3.31557 13.4306 3.25891 13.6715L3.13141 14.224L3.00391 15.074C3.00391 15.2298 3.00391 15.3857 3.00391 15.5415C3.00391 15.9807 3.00391 16.434 3.00391 16.8873C3.00391 17.3407 3.00391 17.794 3.00391 18.2332C3.00391 18.389 3.00391 18.5448 3.00391 18.7007L3.13141 19.5507L3.25891 20.1031C3.25891 20.344 3.37224 20.5848 3.44307 20.8257C3.51391 21.0665 3.55641 21.2082 3.62724 21.3923C3.6668 21.5037 3.69991 21.6172 3.72641 21.7323C3.7291 21.7653 3.7291 21.7985 3.72641 21.8315C4.43752 23.7377 5.55087 25.4684 6.99073 26.9058C8.43058 28.3432 10.1632 29.4536 12.0706 30.1615C12.0706 30.1615 12.0706 30.1615 12.1414 30.1615L12.4814 30.2607L13.0481 30.4448L13.7706 30.629L14.3231 30.7565L15.1731 30.884H15.6406C16.0797 30.884 16.5331 30.9548 16.9864 30.9548C17.4397 30.9548 17.8931 30.9548 18.3322 30.884H18.7997L19.6497 30.7565L20.2022 30.629L20.9247 30.4448L21.4914 30.2607L21.8314 30.1615C21.8314 30.1615 21.8314 30.1615 21.9022 30.1615C23.8097 29.4536 25.5422 28.3432 26.9821 26.9058C28.4219 25.4684 29.5353 23.7377 30.2464 21.8315C30.2437 21.7985 30.2437 21.7653 30.2464 21.7323C30.2464 21.619 30.3172 21.5057 30.3456 21.3923C30.3739 21.279 30.4731 21.024 30.5297 20.8257C30.5864 20.6273 30.6572 20.344 30.7139 20.1031L30.8414 19.5507L30.9689 18.7007C30.9689 18.5448 30.9689 18.389 30.9689 18.2332C30.9689 17.794 31.0397 17.3407 31.0397 16.8873C31.0397 16.434 31.1672 16.094 31.1672 15.6548ZM22.2422 6.92815C24.348 8.00999 26.0621 9.72408 27.1439 11.8298L23.0922 13.2465C22.5049 12.3051 21.7102 11.5105 20.7689 10.9232L22.2422 6.92815ZM14.6489 5.93648C14.9464 5.86565 15.2297 5.82315 15.5131 5.78065H15.8531C16.6631 5.69565 17.4797 5.69565 18.2897 5.78065H18.6297C18.9131 5.78065 19.1964 5.86565 19.4939 5.93648H19.5789L18.1622 9.98815C17.778 9.92909 17.3891 9.90538 17.0006 9.91732C16.6541 9.91686 16.3082 9.94529 15.9664 10.0023L14.5497 5.95065L14.6489 5.93648ZM11.9006 6.92815L13.3172 10.9798C12.3707 11.5654 11.5711 12.3602 10.9797 13.3032L6.92807 11.8865C8.00035 9.7597 9.71542 8.0248 11.8297 6.92815H11.9006ZM5.93641 19.4232C5.86855 19.1436 5.82121 18.8596 5.79474 18.5731C5.79474 18.4457 5.79474 18.3323 5.79474 18.219C5.70028 17.4095 5.70028 16.5918 5.79474 15.7823C5.79474 15.669 5.79474 15.5557 5.79474 15.4282C5.82121 15.1417 5.86855 14.8577 5.93641 14.5782C5.93641 14.5782 5.93641 14.5781 5.93641 14.4931L9.98807 15.9098C9.87472 16.5946 9.87472 17.2934 9.98807 17.9782L5.93641 19.3948C5.93641 19.3948 5.93641 19.4515 5.93641 19.4232ZM11.8297 27.0732C9.72401 25.9913 8.00991 24.2772 6.92807 22.1715L10.9797 20.7548C11.5671 21.6962 12.3617 22.4908 13.3031 23.0782L11.8297 27.0732ZM19.4231 28.0648C19.1256 28.1356 18.8422 28.1782 18.5589 28.2206H18.2189C17.4089 28.3057 16.5922 28.3057 15.7822 28.2206H15.4422C15.1589 28.2206 14.8756 28.1356 14.5781 28.0648H14.4931L15.9097 24.0132C16.5945 24.1265 17.2933 24.1265 17.9781 24.0132L19.3947 28.0648H19.4231ZM18.4739 20.9815C18.2331 21.0665 17.9922 21.1231 17.7656 21.1798C17.2974 21.267 16.8171 21.267 16.3489 21.1798C16.1222 21.1798 15.8814 21.0665 15.6406 20.9815C15.0426 20.775 14.4983 20.4377 14.0474 19.9941C13.5964 19.5504 13.2502 19.0118 13.0339 18.4173C12.9482 18.1823 12.8818 17.9407 12.8356 17.6948C12.745 17.2269 12.745 16.746 12.8356 16.2782C12.8787 16.0423 12.9403 15.8102 13.0197 15.584C13.2333 14.9965 13.5739 14.4634 14.0171 14.0227C14.4603 13.5819 14.9953 13.2443 15.5839 13.034C15.8247 12.949 16.0656 12.8923 16.2922 12.8357C16.7604 12.7484 17.2407 12.7484 17.7089 12.8357C17.9356 12.8357 18.1764 12.949 18.4172 13.034C19.0032 13.2461 19.5354 13.5844 19.9761 14.0251C20.4168 14.4658 20.7552 14.998 20.9672 15.584C21.053 15.819 21.1193 16.0606 21.1656 16.3065C21.2562 16.7744 21.2562 17.2553 21.1656 17.7232C21.1193 17.969 21.053 18.2106 20.9672 18.4457C20.7517 19.0264 20.4117 19.553 19.9712 19.9886C19.5308 20.4242 19.0004 20.7582 18.4172 20.9673L18.4739 20.9815ZM22.1714 27.0873L20.7547 23.0357C21.6961 22.4483 22.4908 21.6537 23.0781 20.7123L27.1297 22.129C26.0403 24.2591 24.3046 25.9898 22.1714 27.0732V27.0873ZM28.3339 18.219C28.3339 18.3323 28.3339 18.4457 28.3339 18.5731C28.3074 18.8596 28.2601 19.1436 28.1922 19.4232C28.1922 19.4232 28.1922 19.4232 28.1922 19.5082L24.1406 18.0915C24.2539 17.4067 24.2539 16.7079 24.1406 16.0232L28.1922 14.6065C28.1922 14.6065 28.1922 14.6065 28.1922 14.6915C28.2601 14.971 28.3074 15.2551 28.3339 15.5415C28.3339 15.669 28.3339 15.7823 28.3339 15.8957C28.4284 16.7051 28.4284 17.5228 28.3339 18.3323V18.219Z"
        fill="white" />
</svg>
    