<svg width="36" height="36" viewBox="0 0 36 36" fill="none" xmlns="http://www.w3.org/2000/svg">
    <g clip-path="url(#clip0_3801_2442)">
        <path
            d="M4.49998 0H23.6171L33.7499 10.0935V33.75C33.7499 34.9931 32.742 36 31.5 36H4.49998C3.25794 36 2.25 34.9931 2.25 33.75V2.24998C2.25 1.0069 3.25806 0 4.49998 0Z"
            fill="#FCE6EB" />
        <path
            d="M33.7174 10.1259H25.875C24.6329 10.1259 23.625 9.11799 23.625 7.87595V0.0234375L33.7174 10.1259Z"
            fill="#DCC9CD" />
        <path
            d="M25.3107 17.0586C25.6876 17.0586 25.8721 16.7301 25.8721 16.4117C25.8721 16.082 25.6797 15.7637 25.3107 15.7637H23.1642C22.7446 15.7637 22.5106 16.1113 22.5106 16.4949V21.77C22.5106 22.2403 22.7783 22.5013 23.1406 22.5013C23.5006 22.5013 23.7695 22.2403 23.7695 21.77V20.3222H25.0678C25.4705 20.3222 25.6719 19.9925 25.6719 19.6652C25.6719 19.3446 25.4705 19.0261 25.0678 19.0261H23.7695V17.0586H25.3107ZM18.0556 15.7637H16.4851C16.0587 15.7637 15.756 16.0562 15.756 16.4904V21.7746C15.756 22.3134 16.1914 22.4822 16.503 22.4822H18.1512C20.1019 22.4822 21.39 21.1986 21.39 19.2174C21.3889 17.1227 20.1762 15.7637 18.0556 15.7637ZM18.131 21.1795H17.1736V17.0665H18.0365C19.3427 17.0665 19.9107 17.9429 19.9107 19.1522C19.9107 20.284 19.3527 21.1795 18.131 21.1795ZM12.3777 15.7637H10.8219C10.382 15.7637 10.1367 16.0539 10.1367 16.4949V21.77C10.1367 22.2403 10.418 22.5013 10.7959 22.5013C11.1739 22.5013 11.4551 22.2403 11.4551 21.77V20.2299H12.4305C13.6342 20.2299 14.6276 19.3771 14.6276 18.0057C14.6277 16.6637 13.6692 15.7637 12.3777 15.7637ZM12.3519 18.9925H11.4552V17.0023H12.3519C12.9054 17.0023 13.2575 17.4343 13.2575 17.9979C13.2564 18.5605 12.9054 18.9925 12.3519 18.9925Z"
            fill="black" />
    </g>
    <defs>
        <clipPath id="clip0_3801_2442">
            <rect width="36" height="36" fill="white" />
        </clipPath>
    </defs>
</svg>
    