<svg width="34" height="34" viewBox="0 0 34 34" fill="none" xmlns="http://www.w3.org/2000/svg">
    <path
        d="M4.2513 31.166H29.7513C30.127 31.166 30.4874 31.0168 30.753 30.7511C31.0187 30.4854 31.168 30.1251 31.168 29.7493V4.24935C31.168 3.87363 31.0187 3.51329 30.753 3.24761C30.4874 2.98194 30.127 2.83268 29.7513 2.83268H21.2513C20.8756 2.83268 20.5152 2.98194 20.2496 3.24761C19.9839 3.51329 19.8346 3.87363 19.8346 4.24935V19.8327H4.2513C3.87558 19.8327 3.51524 19.9819 3.24957 20.2476C2.98389 20.5133 2.83464 20.8736 2.83464 21.2493V29.7493C2.83464 30.1251 2.98389 30.4854 3.24957 30.7511C3.51524 31.0168 3.87558 31.166 4.2513 31.166ZM5.66797 22.666H8.5013V24.0827C8.5013 24.4584 8.65056 24.8187 8.91623 25.0844C9.18191 25.3501 9.54225 25.4993 9.91797 25.4993C10.2937 25.4993 10.654 25.3501 10.9197 25.0844C11.1854 24.8187 11.3346 24.4584 11.3346 24.0827V22.666H14.168V24.0827C14.168 24.4584 14.3172 24.8187 14.5829 25.0844C14.8486 25.3501 15.2089 25.4993 15.5846 25.4993C15.9604 25.4993 16.3207 25.3501 16.5864 25.0844C16.852 24.8187 17.0013 24.4584 17.0013 24.0827V22.666H19.8346V24.0827C19.8346 24.4584 19.9839 24.8187 20.2496 25.0844C20.5152 25.3501 20.8756 25.4993 21.2513 25.4993C21.627 25.4993 21.9874 25.3501 22.253 25.0844C22.5187 24.8187 22.668 24.4584 22.668 24.0827V22.666H24.0846C24.4604 22.666 24.8207 22.5168 25.0864 22.2511C25.352 21.9854 25.5013 21.6251 25.5013 21.2493C25.5013 20.8736 25.352 20.5133 25.0864 20.2476C24.8207 19.9819 24.4604 19.8327 24.0846 19.8327H22.668V16.9993H24.0846C24.4604 16.9993 24.8207 16.8501 25.0864 16.5844C25.352 16.3187 25.5013 15.9584 25.5013 15.5827C25.5013 15.207 25.352 14.8466 25.0864 14.5809C24.8207 14.3153 24.4604 14.166 24.0846 14.166H22.668V11.3327H24.0846C24.4604 11.3327 24.8207 11.1834 25.0864 10.9178C25.352 10.6521 25.5013 10.2917 25.5013 9.91602C25.5013 9.54029 25.352 9.17996 25.0864 8.91428C24.8207 8.6486 24.4604 8.49935 24.0846 8.49935H22.668V5.66602H28.3346V28.3327H5.66797V22.666Z"
        fill="white" />
</svg>
    